# xmcd
# Track frame offsets:
# 150
# 12606
# 28473
# 43790
# 53752
# 67969
# 89942
#
# Disc length: 1505 seconds
# Revision: 0
# Processed by: cddbd v1.5.2PL0 Copyright (c) Steve Scherf et al.
# Submitted via: VisiTrax 2.10.2.252 - For more info visit www.synapsa.com
#
DISCID=6505df07
DTITLE=Blues 4u - Demo
DYEAR=2007
DGENRE=Blue
TTITLE0=New adress
TTITLE1=High and lonesome
TTITLE2=Goodtime Charlie
TTITLE3=Ninety nine
TTITLE4=The freeze
TTITLE5=She tryin to ruin me
TTITLE6=Evening sun
EXTD=
EXTT0=
EXTT1=
EXTT2=
EXTT3=
EXTT4=
EXTT5=
EXTT6=
PLAYORDER=
